<?xml version="1.0" encoding="UTF-8" standalone="no"?>
<!DOCTYPE svg PUBLIC "-//W3C//DTD SVG 20010904//EN" "http://www.w3.org/TR/2001/REC-SVG-20010904/DTD/svg10.dtd">
<svg version="1.0" xmlns="http://www.w3.org/2000/svg" width="1280.000000pt" height="729.000000pt" viewBox="0 0 1280.000000 729.000000" preserveAspectRatio="xMidYMid meet">
<g transform="translate(0.000000,729.000000) scale(0.100000,-0.100000)" fill="#000000" stroke="none">
<path d="M8220 7281 c-21 -12 -213 -47 -330 -61 -211 -23 -480 -30 -945 -24 -807 11 -1135 -20 -1490 -138 -266 -88 -494 -233 -679 -429 -76 -81 -191 -234 -237 -316 -27 -48 -47 -53 -75 -21 -33 37 -212 166 -313 226 -366 215 -797 277 -1266 180 -411 -84 -900 -314 -1448 -680 -180 -120 -418 -290 -727 -518 -124 -91 -240 -172 -258 -179 -106 -43 -187 -191 -227 -414 -15 -86 -21 -100 -41 -108 -22 -8 -24 -15 -24 -69 0 -33 4 -60 10 -60 6 0 10 -13 10 -30 0 -25 -6 -32 -35 -44 -20 -9 -52 -18 -73 -22 -35 -6 -72 -29 -72 -45 0 -11 508 -926 993 -1786 690 -1224 886 -1580 1077 -1953 97 -190 194 -374 215 -410 54 -91 188 -288 227 -332 l33 -37 210 115 c604 333 1397 705 2490 1169 242 103 553 241 690 307 308 148 399 189 525 233 208 72 336 80 623 39 216 -31 330 -29 478 9 180 47 261 89 528 276 375 262 491 300 1166 381 143 17 449 58 680 90 907 128 1762 236 2405 305 184 19 352 38 373 41 l37 6 0 73 c0 40 10 117 21 171 27 123 33 168 25 197 -8 35 -470 431 -625 536 -33 23 -66 38 -74 35 -26 -10 -10 164 25 278 32 103 32 128 -3 128 -12 0 -40 19 -66 45 -45 46 -79 57 -89 30 -4 -8 -10 -15 -14 -15 -5 0 -104 77 -222 172 -429 347 -876 688 -1908 1461 -984 737 -1419 1067 -1531 1159 -52 42 -48 41 -69 29z m77 -79 c198 -156 722 -551 1395 -1054 1053 -785 1519 -1142 1995 -1526 196 -158 245 -210 219 -231 -12 -10 -274 -45 -461 -61 -159 -13 -483 -27 -900 -40 -709 -21 -1045 -52 -1394 -125 -452 -96 -837 -270 -1133 -513 -108 -88 -283 -273 -367 -387 -41 -55 -78 -104 -82 -109 -14 -16 -86 41 -140 109 -53 68 -91 95 -132 95 -19 0 -103 82 -369 357 -354 368 -496 518 -1283 1358 -252 270 -603 640 -779 824 -177 183 -322 337 -324 341 -2 5 20 46 48 91 251 404 624 659 1118 763 300 63 591 80 1257 71 607 -8 927 8 1160 59 101 22 118 20 172 -22z m-4711 -512 c273 -47 554 -176 785 -362 88 -71 504 -505 1413 -1473 413 -440 857 -909 986 -1043 129 -134 297 -309 374 -388 l139 -145 -19 -35 c-36 -66 -40 -68 -161 -53 -153 18 -507 15 -678 -5 -502 -60 -977 -216 -1585 -520 -286 -144 -486 -256 -1010 -566 -430 -255 -548 -323 -685 -400 -227 -128 -406 -219 -418 -214 -33 14 -509 829 -1082 1854 -476 852 -773 1363 -1025 1765 -61 97 -110 185 -108 193 5 27 631 486 955 701 616 408 1115 630 1566 695 147 22 413 20 553 -4z m-2989 -1622 c262 -421 501 -833 983 -1693 526 -938 784 -1387 1005 -1746 l107 -173 -22 -260 c-29 -353 -34 -386 -62 -408 -22 -16 -23 -24 -23 -134 0 -77 -4 -118 -11 -121 -22 -7 -1349 2313 -2028 3547 -147 267 -276 497 -287 512 -23 33 -25 49 -4 42 32 -13 48 95 19 127 -15 17 -15 26 1 116 22 124 58 235 97 296 31 49 72 87 93 87 6 0 66 -87 132 -192z m11376 -890 c-5 -164 -1 -192 27 -185 25 6 36 -9 19 -29 -8 -10 -10 -38 -5 -99 7 -99 24 -174 72 -327 47 -150 67 -239 56 -250 -4 -4 -344 -13 -755 -18 -411 -5 -841 -14 -955 -20 -781 -39 -1261 -131 -1659 -320 -216 -103 -406 -244 -536 -399 -38 -44 -73 -81 -78 -81 -15 0 -38 43 -78 153 -66 178 -93 201 -231 201 -69 0 -103 -6 -180 -32 -113 -38 -177 -52 -196 -45 -31 12 12 128 80 222 41 57 64 100 81 156 22 76 202 293 354 429 459 411 1059 611 1996 666 99 5 392 17 650 25 661 21 952 41 1213 84 59 9 112 16 118 13 9 -2 10 -44 7 -144z m-4936 -1029 c167 -14 187 -19 192 -50 4 -32 17 -39 74 -39 32 0 49 -5 53 -15 3 -8 -41 -94 -102 -197 -163 -274 -200 -383 -213 -606 l-6 -117 -70 -2 c-649 -20 -1099 -96 -1590 -267 -509 -178 -916 -396 -1805 -968 -428 -275 -849 -528 -878 -528 -22 0 -22 22 3 124 29 122 34 240 10 266 -13 14 -13 31 0 141 7 68 21 214 30 324 9 110 18 205 20 212 2 7 37 29 77 49 120 60 435 237 666 373 120 70 345 203 502 296 700 413 1137 632 1572 789 268 96 626 182 863 205 61 6 124 13 140 15 71 8 344 5 462 -5z"/>
</g>
</svg>